#!OML:ASF G:\JayActor3\Patient Classification 1\Patient 1\Session 5\male.ASF
:FULLY-SPECIFIED
:DEGREES
671
root 2.52059 14.2264 -5.49231 -160.682 86.5265 -174.138
lowerback 35.7075 -2.6871 1.9929
upperback 7.81625 -1.68189 -0.07825
thorax -9.23212 -0.408625 -0.549343
lowerneck -6.10456 -0.714346 1.25271
upperneck -10.9058 -0.574654 1.77328
head -2.40222 -0.237912 0.346539
rclavicle 5.26779e-015 6.95746e-015
rhumerus -21.0725 4.78604 -86.7037
rradius 42.4492
rwrist -4.58543
rhand -20.5572 -8.92556
rfingers 7.12502
rthumb 5.80187 -38.8261
lclavicle 5.26779e-015 6.95746e-015
lhumerus -24.1517 -8.17636 83.4705
lradius 43.5536
lwrist 23.7765
lhand -18.1499 11.5987
lfingers 7.12502
lthumb 8.1257 41.4225
rfemur -73.9809 -0.98284 20.5852
rtibia 55.6312
rfoot -14.5436 -12.8069
rtoes -5.74756
lfemur -46.8219 4.6364 -25.0209
ltibia 84.3117
lfoot -31.7905 7.62953
ltoes -26.4032
672
root 2.66552 14.2235 -5.47135 -160.535 86.5084 -174.041
lowerback 35.6883 -2.70348 1.9298
upperback 7.76381 -1.72879 -0.050212
thorax -9.28197 -0.432914 -0.467776
lowerneck -6.13385 -0.687415 1.25287
upperneck -10.9974 -0.539711 1.68875
head -2.42798 -0.217439 0.319872
rclavicle 2.84262e-014 -1.75924e-014
rhumerus -21.0448 4.76475 -86.6722
rradius 42.4146
rwrist -4.55543
rhand -20.6078 -8.88241
rfingers 7.12502
rthumb 5.75298 -38.7843
lclavicle 2.84262e-014 -1.75924e-014
lhumerus -24.2887 -8.04826 83.4733
lradius 43.5195
lwrist 23.7331
lhand -18.162 11.62
lfingers 7.12502
lthumb 8.114 41.4443
rfemur -74.1515 -0.94755 20.6241
rtibia 56.5311
rfoot -14.1513 -12.8683
rtoes -5.23182
lfemur -46.3442 4.72216 -24.7244
ltibia 84.4852
lfoot -31.6753 7.20144
ltoes -26.9915
673
root 2.81173 14.2245 -5.45041 -160.475 86.5208 -174.001
lowerback 35.71 -2.71492 1.84965
upperback 7.71419 -1.77375 -0.0277538
thorax -9.34325 -0.455317 -0.383315
lowerneck -6.14367 -0.656256 1.25276
upperneck -11.1072 -0.498422 1.60174
head -2.46326 -0.193816 0.292528
rclavicle 9.24349e-015 2.08724e-015
rhumerus -20.9918 4.73901 -86.6442
rradius 42.3657
rwrist -4.5354
rhand -20.6849 -8.83353
rfingers 7.12502
rthumb 5.67862 -38.7374
lclavicle 9.24349e-015 2.08724e-015
lhumerus -24.4079 -7.93605 83.476
lradius 43.4518
lwrist 23.7261
lhand -18.165 11.6369
lfingers 7.12502
lthumb 8.11108 41.4612
rfemur -74.2145 -0.883712 20.6632
rtibia 57.3271
rfoot -13.7338 -12.9801
rtoes -4.75676
lfemur -45.7889 4.83667 -24.4345
ltibia 84.59
lfoot -31.5333 6.76846
ltoes -27.6084
674
root 2.9591 14.2288 -5.42955 -160.218 86.5555 -173.748
lowerback 35.7473 -2.7174 1.77338
upperback 7.66801 -1.8052 -0.00572943
thorax -9.40609 -0.47114 -0.306316
lowerneck -6.12925 -0.626945 1.25366
upperneck -11.2267 -0.458989 1.5198
head -2.50605 -0.171491 0.266663
rclavicle -1.51076e-014 -3.73715e-014
rhumerus -20.9249 4.6851 -86.6149
rradius 42.301
rwrist -4.51691
rhand -20.7798 -8.79622
rfingers 7.12502
rthumb 5.58693 -38.7026
lclavicle -1.51076e-014 -3.73715e-014
lhumerus -24.4973 -7.8575 83.4871
lradius 43.3384
lwrist 23.7431
lhand -18.176 11.6765
lfingers 7.12502
lthumb 8.10051 41.5012
rfemur -74.1966 -0.798098 20.7349
rtibia 58.053
rfoot -13.2959 -13.0843
rtoes -4.23745
lfemur -45.1851 4.97818 -24.1356
ltibia 84.6424
lfoot -31.3599 6.33481
ltoes -28.2064
675
root 3.10747 14.2356 -5.40885 -159.5 86.608 -173.037
lowerback 35.7745 -2.71653 1.7151
upperback 7.62665 -1.82591 0.0205997
thorax -9.45998 -0.482247 -0.238502
lowerneck -6.12985 -0.597665 1.24472
upperneck -11.3285 -0.41923 1.45043
head -2.54026 -0.148755 0.24627
rclavicle 4.96962e-015 -6.65929e-015
rhumerus -20.833 4.61677 -86.5832
rradius 42.2178
rwrist -4.50444
rhand -20.8837 -8.79019
rfingers 7.12502
rthumb 5.48667 -38.6992
lclavicle 4.96962e-015 -6.65929e-015
lhumerus -24.5394 -7.78599 83.5075
lradius 43.1636
lwrist 23.7623
lhand -18.1889 11.725
lfingers 7.12502
lthumb 8.08803 41.5503
rfemur -74.1377 -0.695186 20.8622
rtibia 58.7474
rfoot -12.8811 -13.1204
rtoes -3.68155
lfemur -44.5745 5.14647 -23.8161
ltibia 84.664
lfoot -31.1508 5.90705
ltoes -28.7613
676
root 3.25691 14.2445 -5.38798 -158.22 86.6656 -171.783
lowerback 35.7668 -2.71218 1.68257
upperback 7.58863 -1.83437 0.0514306
thorax -9.49775 -0.488507 -0.18471
lowerneck -6.12308 -0.568578 1.23496
upperneck -11.4166 -0.37928 1.39653
head -2.57119 -0.126418 0.230856
rclavicle -1.23246e-014 -3.08116e-014
rhumerus -20.7297 4.525 -86.5533
rradius 42.1131
rwrist -4.48488
rhand -21.0081 -8.7959
rfingers 7.12502
rthumb 5.36654 -38.7079
lclavicle -1.23246e-014 -3.08116e-014
lhumerus -24.5419 -7.72957 83.532
lradius 42.938
lwrist 23.7685
lhand -18.203 11.7911
lfingers 7.12502
lthumb 8.07443 41.6169
rfemur -74.0599 -0.579159 21.046
rtibia 59.437
rfoot -12.555 -13.0413
rtoes -3.06306
lfemur -43.9829 5.33153 -23.4692
ltibia 84.6704
lfoot -30.8916 5.47364
ltoes -29.2159
